{"title":"Attack The Block 2011 DVDRip XViD DTRG","uid":6648365,"size":1328115199,"categoryP":"video","categoryS":"movies","magnet":"?xt=urn:btih:8745c80dc2308a1d9beb415fabd2e83a55c865bd&amp;dn=Attack+The+Block+2011+DVDRip+XViD+DTRG&amp;tr=udp%3A%2F%2Ftracker.openbittorrent.com%3A80&amp;tr=udp%3A%2F%2Fopen.demonii.com%3A1337&amp;tr=udp%3A%2F%2Ftracker.coppersurfer.tk%3A6969&amp;tr=udp%3A%2F%2Fexodus.desync.com%3A6969","seeders":0,"leechers":0,"uploader":"SAFCukO09","files":3,"time":1315035182,"description":"Format : AVI\nFormat/Info : Audio Video Interleave\nFile size : 1.24 GiB\nDuration : 1h 24mn\nOverall bit rate : 2 100 Kbps\nWriting library : VirtualDub build 32842/release\n\nVideo\nID : 0\nFormat : MPEG-4 Visual\nFormat profile : Advanced Simple@L5\nFormat settings, BVOP : 2\nFormat settings, QPel : No\nFormat settings, GMC : No warppoints\nFormat settings, Matrix : Default (H.263)\nMuxing mode : Packed bitstream\nCodec ID : XVID\nCodec ID/Hint : XviD\nDuration : 1h 24mn\nBit rate : 1 643 Kbps\nWidth : 720 pixels\nHeight : 304 pixels\nDisplay aspect ratio : 2.35:1\nFrame rate : 25.000 fps\nColor space : YUV\nChroma subsampling : 4:2:0\nBit depth : 8 bits\nScan type : Progressive\nCompression mode : Lossy\nBits/(Pixel*Frame) : 0.300\nStream size : 991 MiB (78%)\nWriting library : XviD 64\n\nAudio\nID : 1\nFormat : AC-3\nFormat/Info : Audio Coding 3\nMode extension : CM (complete main)\nCodec ID : 2000\nDuration : 1h 24mn\nBit rate mode : Constant\nBit rate : 448 Kbps\nChannel(s) : 6 channels\nChannel positions : Front: L C R, Side: L R, LFE\nSampling rate : 48.0 KHz\nBit depth : 16 bits\nCompression mode : Lossy\nStream size : 270 MiB (21%)\nAlignment : Aligned on interleaves\nInterleave, duration : 40 ms (1.00 video frame)\nInterleave, preload duration : 512 ms\n\n\n\n\n\n\n &lt;a href=&quot;\nhttp://www.imdb.com/title/tt1478964/&quot; rel=&quot;nofollow&quot; target=&quot;_NEW&quot;&gt;\nhttp://www.imdb.com/title/tt1478964/&lt;/a&gt;\n\n\n\n\n\n\n\n\n\nRatings: 7.4/10 from 2,987 users Metascore: 75/100\nReviews: 54 user | 144 critic | 26 from Metacritic.com\n\nA teen gang in South London defend their block from an alien invasion.\nDirector:\nJoe Cornish\nWriter:\nJoe Cornish\nStars:\nJohn Boyega, Jodie Whittaker and Alex Esmail\n\n\n\n\n\n\n\n\n\n\n\n\n\n\n\n\n\n\n\n\n\nSource Used\n\n\nPAL DVDR....... Legend .....Thanks mate\n\n\nEnjoy\n\n\n\n\n\nGreetz to IMAGiNE,Flawl3ss,DiLLoN,BDK,NOiR,TOXiC,THC,Ez,Rx,Boobyblue,TaRiQ786\n\n","torrent":{"xt":"urn:btih:8745c80dc2308a1d9beb415fabd2e83a55c865bd","amp;dn":"Attack+The+Block+2011+DVDRip+XViD+DTRG","amp;tr":["udp%3A%2F%2Ftracker.openbittorrent.com%3A80","udp%3A%2F%2Fopen.demonii.com%3A1337","udp%3A%2F%2Ftracker.coppersurfer.tk%3A6969","udp%3A%2F%2Fexodus.desync.com%3A6969"],"infoHash":"8745c80dc2308a1d9beb415fabd2e83a55c865bd","infoHashBuffer":{"type":"Buffer","data":[135,69,200,13,194,48,138,29,155,235,65,95,171,210,232,58,85,200,101,189]},"announce":[],"urlList":[]}}